<svg id="Слой_1" data-name="Слой 1" xmlns="http://www.w3.org/2000/svg" viewBox="0 0 577 312"><defs><style>.cls-1{fill:#2ca9c7;}.cls-2{fill:#1ec9e8;}.cls-3{fill:#f5f5f5;}.cls-4{fill:#f3f3f3;}</style></defs><path class="cls-1" d="M231.16,269.82H218l-18.3-44.28-2.81-7.81.37,8.42v43.67h-15V183h13.3l18.3,44.28,2.69,7.94-.25-8.67V183h14.89Zm128.54,0h-15V228l.24-8.91-1.71,7.44-8.05,26.6h-9.76l-8.17-26.6-1.71-7.44.24,8.91v41.84h-15V183h15l14.52,47.46L344.82,183H359.7Zm107.86,0H427.3V183h40.26v14.76H443.28v21h20.5v14.64h-20.5v21.71h24.28Zm107.06-25q0,25.88-23.42,25.87-22.69,0-23.43-24.89h15.5q.24,5.37,2.07,7.81a6.72,6.72,0,0,0,5.61,2.31q7.93,0,7.93-10.37,0-6-2.31-8.66-1.83-1.95-6.35-3.17l-3.17-.85a34.12,34.12,0,0,1-8.54-3.3,18.38,18.38,0,0,1-5.37-5q-4.39-5.85-4.39-18.79,0-11.58,5.86-17.56t16.95-6.11q11,0,16.35,5.74T574,206H558.4q-.25-5.25-1.83-7.32t-5-2.2q-6.94,0-6.95,9.15,0,5.61,1.46,7.69t6.59,3.54l2.93.85q10.13,2.93,13.66,6.83Q574.62,230.29,574.62,244.81Z"/><path class="cls-2" d="M289.72,244.32q0,26.24-23.66,26.23t-23.79-26.23V183h16v60.88q0,6.58,1.58,9.27t6.23,2.68c2.92,0,4.92-.89,6-2.68s1.71-4.88,1.71-9.27V183h16Zm129.41.86q0,12.81-6.34,18.79t-17.33,5.85h-24V183h23.42q12,0,17.57,5.86t5.73,17.93v1.71q0,6.71-2.68,11a15.22,15.22,0,0,1-6.47,5.85,14.8,14.8,0,0,1,7.08,6q3,4.39,3.05,12.2Zm-17-37.21q0-5.37-1.95-7.93t-6.59-2.56h-6.22v20.86h6.47q4.64,0,6.46-2.56C401.56,214,402.17,211.38,402.17,208Zm-1,44.53q1.95-2.81,1.95-8.54t-1.95-8.42q-1.83-2.81-6.84-2.8h-6.95V255.3h6.95Q399.37,255.3,401.2,252.5Zm122.66,17.32H507.15l-10.86-34.64h-4.63v34.64H475.8V183h24.64q22,0,22,24.64v2.08q0,16.83-11.47,22.2Zm-17.81-59.66v-1.22q0-5.85-1.95-8.54c-1.22-1.78-3.29-2.68-6.22-2.68h-6.22v23.67h6.22Q506.05,221.39,506.05,210.16Z"/><path class="cls-3" d="M97.72,155.21c-.66.41-1.58.31-2.74-.3a13.71,13.71,0,0,1-3.12-2.53,14.51,14.51,0,0,1-2.31-3.44,3.06,3.06,0,0,1,.11-3q8.91-4.83,17.8-9.3t18.23-8.13q9.54-14.14,18.09-27.69T159.29,76q6.84-11.22,11.36-19t6-10.88c.52-.37,1.27-.3,2.26.2a11.29,11.29,0,0,1,3.16,2.29,22,22,0,0,1,3.07,3.23,14.66,14.66,0,0,1,2,3.07q1.1.16.81,1.29l0-.11a98.3,98.3,0,0,1-2.5,9.71q-1.72,5.69-3.94,12.54t-5.09,14.35q-2.72,7.58-5.58,15.52t-5.79,16q-2.85,8-5.44,15.6T155,154.25q-2.11,6.83-3.52,12.42a86.76,86.76,0,0,0-1.74,9.51c-.3,2.63-.17,4.53.37,5.7l1.55,1.44a3.5,3.5,0,0,1,2,2.36,5.36,5.36,0,0,1-.08,3.15,4.35,4.35,0,0,1-1.67,2.42,3.18,3.18,0,0,1-3,.57,10.85,10.85,0,0,1-5.49-.15,7.74,7.74,0,0,1-3.79-2.47,12.48,12.48,0,0,1-2.17-4.17,28.39,28.39,0,0,1-1.09-5.39,44.24,44.24,0,0,1-.12-5.19,48.69,48.69,0,0,1,.46-5.22c.22-1.76.48-3.41.76-5s.53-3,.82-4.28Q142,145.92,147,131.81c-.88.16-1.76.36-2.62.59l-2.49.66c-1.23.33-2.44.7-3.65,1.1s-2.33.66-3.54,1.06l-3.82,5.66.11,0-4.87,7.34q-4.56,6.78-9.47,14t-10,14.26q-5.2,7-10.75,13.55c-8.55,10.17-27.38,28.24-31.21,31.82A81.83,81.83,0,0,1,53,231.24a48.69,48.69,0,0,1-12.18,6q-8.86,2.84-15.73,1.89a23.91,23.91,0,0,1-11.6-4.77A26,26,0,0,1,6,224.7a43.59,43.59,0,0,1-3.4-13.12,56.27,56.27,0,0,1,1-16.51,55.42,55.42,0,0,1,6.27-16.41,52.3,52.3,0,0,1,11.37-13.82,42.47,42.47,0,0,1,16.5-9q7.65-2.16,13.4.24A21.14,21.14,0,0,1,61,164.74l.26.51a11.59,11.59,0,0,1,.41,3.71,26,26,0,0,1-.51,5,10.22,10.22,0,0,1-1.32,3.72c-.6.93-1.36,1-2.26.25a37.11,37.11,0,0,0-3.46-3.82,19.27,19.27,0,0,0-4.4-3.46,18.71,18.71,0,0,0-5.47-2.24,11.37,11.37,0,0,0-5.9.07,32.79,32.79,0,0,0-12.77,6,35.7,35.7,0,0,0-8.72,9.87,40.42,40.42,0,0,0-5.77,23.93,27.09,27.09,0,0,0,2.19,8.57,18.2,18.2,0,0,0,5,6.44,16.87,16.87,0,0,0,7.82,3.24,25.57,25.57,0,0,0,10.56-.86l1.51-.41a13.05,13.05,0,0,0,1.7-.57,44.76,44.76,0,0,0,13.58-8.16c4.59-3.93,29.24-28.66,34-34.17s9.45-11.62,14.22-18.31,9.64-13.79,14.43-21q-4.44,2.46-8.87,5.39t-9,6.59Zm45-32.35c2.81-.75,5.55-1.37,8.2-1.85q2.49-6.69,5.13-13.32t5.31-13.48l-9.08,14.15Z"/><path class="cls-3" d="M211.93,141.43q-2.06,4.48-4.68,9.37a73.82,73.82,0,0,1-5.94,9,43.31,43.31,0,0,1-7.18,7.37,20,20,0,0,1-8.3,4.08,8.89,8.89,0,0,1-4.54-.06,8,8,0,0,1-3.45-2.09,12.6,12.6,0,0,1-2.19-3.82,18.57,18.57,0,0,1-1.06-4.82,34.28,34.28,0,0,1,.37-7.28,45.23,45.23,0,0,1,1.65-6.82c.8-2.23,1.67-4.43,2.63-6.62s2-4.44,3.07-6.74l1.78-3.72,0,.11,2.15-4.52a9.65,9.65,0,0,1,1.7-2.77,18.27,18.27,0,0,1,4.15-3.09l-2.34,1.21a10,10,0,0,0-1.64.79l-2.64,1.4a11.91,11.91,0,0,1-3.19,1.09l-1.08.29q-1.93,4.45-3.58,8.72t-3.1,7.91l0-.11c-.18.51-.65.75-1.43.73a6.71,6.71,0,0,1-2.35-.53,9.83,9.83,0,0,1-2.11-1.41,1.59,1.59,0,0,1-.39-1.87l0,.11q2-4.95,3.39-8.56c.88-2.48,1.69-4.66,2.42-6.56A6.82,6.82,0,0,1,172.6,118a14.38,14.38,0,0,1,.79-6.59q1.14-3.09,2.7-7.21c.4-1.12.8-2.35,1.22-3.69a33.41,33.41,0,0,0,1.25-4.86c1.16.31,2.33.65,3.52,1a9.48,9.48,0,0,1,3.17,1.47,7.33,7.33,0,0,1,2.49,2.34,8,8,0,0,1,1.2,3.62c0,.69,0,1.46,0,2.31a13.18,13.18,0,0,1-.5,2.92l-3.23,6.08c-.25.53-.05.56.59.08s1.52-1.42,2.68-2.58,2.45-2.51,3.9-4,2.84-3.09,4.21-4.61,2.54-2.93,3.52-4.19a26.5,26.5,0,0,0,2.12-2.89,3.32,3.32,0,0,1,1.8.21,12.16,12.16,0,0,1,2.24,1,11.27,11.27,0,0,1,2,1.08,4.25,4.25,0,0,1,1.1.63,6.1,6.1,0,0,1,1.19,4.43,25.58,25.58,0,0,1-1.45,6.31,66.08,66.08,0,0,1-3.12,7.79q-1.92,4.11-4.1,8.52c-.88,1.63-1.72,3.24-2.53,4.85s-1.6,3.25-2.39,4.93c-.59,1.24-1.25,2.66-2,4.24S193.63,144.4,193,146a31.51,31.51,0,0,0-1.56,4.59,11.09,11.09,0,0,0-.42,3.59c0,.47.39.59,1.25.36a7,7,0,0,0,2.94-1.6,34,34,0,0,0,3.52-3.72A58.33,58.33,0,0,0,202.3,144a43.92,43.92,0,0,0,3.1-6.17l-.11,0q1.89-4.22,3.48-8.23c1.06-2.69,1.88-4.95,2.46-6.81.27-.46.8-.64,1.6-.54a5.47,5.47,0,0,1,2.37.64,6.35,6.35,0,0,1,2.07,1.64,1.61,1.61,0,0,1,.38,1.87l0-.24-2.44,6.45-3.15,8.61Z"/><path class="cls-4" d="M285,135.87l2.09.36a3.53,3.53,0,0,0,3.46-2.38,42.52,42.52,0,0,0,1.65-4.89,22.65,22.65,0,0,0,1-4.61c0-1.35-.53-2-1.58-2a2.58,2.58,0,0,0-.51.07,7.76,7.76,0,0,0-5.54,3.89,18.33,18.33,0,0,0-2.16,8.79,27.24,27.24,0,0,0,.5,5,21.85,21.85,0,0,1,.58,3.39c0,1.92-.55,2.88-1.66,2.88s-2.64-2.4-4.32-7.2c-.72-2.07-1.22-3.41-1.51-4a5.8,5.8,0,0,1-.36-2.09q0-2.24,2.81-7.42a199.41,199.41,0,0,1,5.33-34q.42-1.44,1.08-1.44c.52,0,.91.4,1.15,1.22a6.31,6.31,0,0,1,.43,2q0,.72-.72,6.48t-1.44,17.85c2.54-2.3,4.78-3.45,6.7-3.45a4,4,0,0,1,3.09,1.44,8.9,8.9,0,0,1,2.09,3.45,24.71,24.71,0,0,1,1.37,7.78q0,9.44-6.55,18.21a3.52,3.52,0,0,1-2.67,1.73q-1.8,0-3.45-3.81a16.35,16.35,0,0,1-1.66-6.05C284.24,136.23,284.5,135.87,285,135.87Zm14.69-21.17c0-.72.48-1,1.44-.94h1.08a12.1,12.1,0,0,0,2.74-.64,10.89,10.89,0,0,1,3.31-.72,3.34,3.34,0,0,1,2.31,1,9.81,9.81,0,0,1,2.08,2.45,5.9,5.9,0,0,1,.94,3.17c0,1.06-1.06,3.91-3.17,8.57a68,68,0,0,0-3.09,7.41q0,.51.57.51,1.15,0,4.83-4.18a20.84,20.84,0,0,0,1.72-2.45c.68-1,1.18-1.84,1.52-2.37a23.58,23.58,0,0,0,1.36-2.74l1.23-2.52q1.37-2.88,2.37-5.47a1.84,1.84,0,0,1,1.73-1.22,2.76,2.76,0,0,1,2.16,1.36,4.65,4.65,0,0,1,1,2.74q0,2.37-3.74,20t-4.18,19.58c-.24,1.3-.48,4.22-.72,8.78,0,1.49-.5,2.24-1.51,2.24a2.13,2.13,0,0,1-.94-.22q-5.25-2.16-5.25-9.22V155c0-1,.31-1.51.93-1.51a2.49,2.49,0,0,1,1.8,1.22c.67.82,1,1.27,1.08,1.37l3.89-19.22a33.31,33.31,0,0,1-5.11,5.25,7.74,7.74,0,0,1-4.54,1.3A4.78,4.78,0,0,1,303.4,141a10,10,0,0,1-1.59-5.54q0-6.42,4.54-15.12a14.6,14.6,0,0,1-3.31.5,1.88,1.88,0,0,1-1.8-1.3,22.57,22.57,0,0,1-.94-2.44A13.76,13.76,0,0,1,299.72,114.7Z"/><path class="cls-3" d="M312.84,53.88l-2.67-2.67c-21.43,3.13-47.77,10-69.12,16.8.48-1.89,1-4,1.33-5.4.75-3.23-2.58-7.75-7.75-9.58s-7.09.65-7.09.65A115.85,115.85,0,0,1,224,73.76h0c-34.89,12.55-34.58,19.39-31.37,19.39a7.32,7.32,0,0,0,2.73-1.1c3.18-1.65,9.68-5,25.38-9.16-5.25,22.21-4.81,16.32-9.65,35.38s-5,30.65-4.94,32.2.55,5,.55,5c3.39,13.18,12.81,7.41,12.81,7.41,12.9-4.21,25.54-42.41,25.84-43s.16-.87.16-.87c-.62-2-3.27-2.75-3.27-2.75s-2.7-.89-3.29.32-2,5.31-2,5.31c-5.65,16.22-11.35,23.59-13.73,25.82s-2.82,2.08-3,2,0-.94,0-.94c-2.8-6.41,16.7-66.08,16.7-66.08,4.95-3.85,17.4-6.72,23.77-8,6.3-1,13.21-2.07,20.78-3.1,10.86-1.49,20.6-2.67,29.13-3.68h0l3-3Z"/><path class="cls-2" d="M314.92,54.32s8.29-6.48,23.67-5,15.23,10,13.43,10.19c0,0-.59-1.87-3.37-.27-3.84,2.21-11.92,9.41-18.79,9.79-6.18.34-10.32-1.23-14.32-4.77Z"/><path class="cls-1" d="M352,59.46c1.79-.16,1.94-8.71-13.32-10.17h-.07s3.6,2.48,1.35,8.71c-2,5.48-1.85,7.56-1.79,8,1.11-.6,2.2-1.24,3.25-1.9,2.93-1.93,5.49-3.92,7.21-4.9C351.43,57.6,352,59.46,352,59.46Z"/></svg>