<svg id="Слой_1" data-name="Слой 1" xmlns="http://www.w3.org/2000/svg" viewBox="0 0 1080 1080"><defs><style>.cls-1{fill:#f5f5f5;fill-rule:evenodd;}.cls-2{fill:#1ec9e8;}.cls-3{fill:#2ca9c7;}</style></defs><path class="cls-1" d="M870.75,405.54l-10.13-10.12c-59.72,8.71-129.52,25.2-194.46,43.5q5.34-14.82,10.62-29.52,10.82-30.13,21.14-58.82,10.74-28.8,19.26-54.37,8.42-26,15-47.5a367.49,367.49,0,0,0,9.47-36.8l.11.41q1.06-4.24-3.07-4.89a53.23,53.23,0,0,0-7.5-11.61,83.42,83.42,0,0,0-11.63-12.26,43.18,43.18,0,0,0-12-8.65c-3.74-1.93-6.58-2.19-8.55-.78q-5.38,11.1-22.78,41.25-17.1,29.63-43.05,72.16-26.05,42.12-58.74,93.94Q542,432.77,505.86,486.39q-35,13.77-69.07,30.81-33.68,16.93-67.44,35.21-3.23,4.37-.43,11.53a54.78,54.78,0,0,0,8.76,13,51,51,0,0,0,11.8,9.58q6.64,3.5,10.41,1.17l1.53-.85q17.37-13.89,34.17-25t33.63-20.43Q442,582.58,414.56,621.13q-27.15,38-53.91,69.36C342.82,711.37,249.43,805.05,232.05,820q-26.19,22-51.47,30.93a54.85,54.85,0,0,1-6.45,2.16l-5.73,1.54q-22.54,6-40,3.25T98.76,845.57a69,69,0,0,1-18.83-24.39,102.57,102.57,0,0,1-8.27-32.49,147,147,0,0,1,3.55-45.76A149.77,149.77,0,0,1,93.5,698.05a135.28,135.28,0,0,1,33-37.41q20.73-16.1,48.41-22.64a43.23,43.23,0,0,1,22.34-.27A70.77,70.77,0,0,1,218,646.24a74.22,74.22,0,0,1,16.69,13.09,148.39,148.39,0,0,1,13.11,14.5q5.12,4.35,8.53-1t5-14.09a95.68,95.68,0,0,0,1.94-19q0-9.67-1.57-14.08l-1-1.94q-15.12-23.62-37.3-32.61-21.77-9.1-50.76-.9-36.25,10.59-62.53,33.89a198,198,0,0,0-43.07,52.4,209.56,209.56,0,0,0-23.76,62.16,213,213,0,0,0-3.89,62.54A164.68,164.68,0,0,0,52.33,851q10.47,22.68,28.3,36.79,18.36,14.41,44,18.1,26,3.57,59.59-7.18a184.07,184.07,0,0,0,46.14-22.91,309.39,309.39,0,0,0,44.49-35.64c14.52-13.56,85.85-82,118.25-120.55q21-25,40.73-51.33,19.62-26.79,37.79-54.06,18.58-27.39,35.86-53.1l18.47-27.8-.41.11L540,512q6.85-2.26,13.42-4c1.3-.43,2.61-.83,3.91-1.24q13.49-3.07,28.8-6.25-18.76,52.73-32.4,105.38-1.63,7-3.13,16.21-1.6,8.78-2.87,18.78a182.43,182.43,0,0,0-1.73,19.8,169.35,169.35,0,0,0,.44,19.65,106.14,106.14,0,0,0,4.15,20.41,47.46,47.46,0,0,0,8.19,15.82,29.33,29.33,0,0,0,14.36,9.34q8.7,2.92,20.8.57,6.61,1.74,11.29-2.15a16.27,16.27,0,0,0,6.33-9.16,20.14,20.14,0,0,0,.32-11.94,13.3,13.3,0,0,0-7.67-8.94l-5.86-5.46q-3.09-6.63-1.39-21.59a328.83,328.83,0,0,1,6.6-36q5.31-21.2,13.31-47.06,7.9-26.28,17.4-54.75,6.78-20,14.06-40.64c30.14-5.22,64.3-10.53,103.07-15.83,41.15-5.63,78-10.1,110.38-13.94l.15,0,11.5-11.5Zm-264.06,4.63,34.41-53.59q-9.87,25.49-20.14,51.09-10,25.07-19.43,50.45-15.09,2.73-31.07,7Z"/><path class="cls-2" d="M876.36,404.71s36.06-28.17,103-21.94,66.26,43.6,58.45,44.3c0,0-2.58-8.13-14.68-1.18-16.72,9.62-51.87,41-81.76,42.62-26.88,1.48-44.89-5.37-62.29-20.78Z"/><path class="cls-3" d="M1037.79,427.07c7.79-.69,8.44-37.88-58-44.25l-.32.06s15.7,10.81,5.91,37.89c-8.63,23.85-8,32.89-7.79,34.71,4.81-2.6,9.56-5.39,14.13-8.27,12.72-8.38,23.89-17,31.36-21.32C1035.21,419,1037.79,427.07,1037.79,427.07Z"/></svg>